<svg width="116" height="33" viewBox="0 0 116 33" fill="none" xmlns="http://www.w3.org/2000/svg">
<g id="logo/micro">
<g id="Group 1">
<path id="O" fill-rule="evenodd" clip-rule="evenodd" d="M102.344 3.01123H100.31L98.8034 3.16121L97.7488 3.38618L96.3929 3.83612L95.1124 4.43605L93.7565 5.26094L92.7773 6.01084L91.8734 6.91073L91.1954 7.66063L90.4421 8.71049L89.4629 10.4353L89.0109 11.5601L88.559 13.2849L88.333 15.2346V17.5593L88.4083 18.3093L88.7096 19.959L89.1616 21.4588L89.6889 22.6587L90.4421 24.0085L91.4214 25.2833L91.9487 25.8083L92.8526 26.6332L94.1331 27.5331L95.263 28.133L96.6942 28.7329L98.2008 29.1079L100.611 29.4828H102.72L103.7 29.3328L105.658 28.8829L106.863 28.4329L107.993 27.833L109.274 26.9331L110.178 26.1082L111.082 25.2084L111.91 24.2335L112.814 22.8837L113.492 21.4588L114.019 19.6591L114.245 18.0093V14.7847L114.17 13.9598L114.019 13.0599L113.567 11.4101L112.889 9.83535L112.136 8.56051L111.082 7.1357L110.404 6.46078L109.575 5.78587L108.295 4.88599L107.165 4.28607L105.733 3.68614L104.001 3.2362L102.344 3.01123ZM102.197 8.79024H100.716L99.2338 9.09305L98.567 9.39586L97.6038 10.0772L97.1592 10.6071L96.4924 11.8941L96.0479 13.1053L95.7515 14.3923L95.6034 15.8306V16.5877L95.6775 17.5718L95.8256 18.4046L96.2702 19.9186L96.7147 20.9785L97.3074 22.0383L97.9742 22.644L98.641 23.0225L99.8265 23.4767L101.16 23.7038L102.346 23.6281L103.383 23.401L104.568 22.8711L105.457 22.1897L105.754 21.8112L106.05 21.357L106.643 20.1457L106.939 19.0102L107.161 17.4961V15.5278L106.939 13.6353L106.643 12.5754L106.05 11.2884L105.605 10.5314L105.087 10.0015L104.198 9.39586L103.309 9.01735L102.197 8.79024Z" fill="#26397A"/>
<path id="R" d="M74.1616 3H76.7454L79.3292 3.0783L80.7385 3.31318L81.7563 3.70467L82.6959 4.25274L83.4788 4.87911L84.3401 5.74037L84.9665 6.75822L85.358 7.61948L85.5928 8.48073L85.6711 9.1854V11.1428L85.358 12.4738L84.6533 13.8049L83.792 14.8227L83.0874 15.4491L82.0695 16.0755L81.4431 16.3887L80.5819 16.6235L80.8168 16.7801L82.0695 17.4065L82.7742 17.9546L83.3223 18.5026L83.8703 19.3639L84.1052 20.0686L84.2618 21.0081L84.3401 22.1043V29.3858L83.9486 29.4641H78.9377L77.2152 29.3858L77.1369 22.6523L76.9803 21.5562L76.5888 20.7732L75.9624 20.2252L75.336 19.912L74.6314 19.7554L73.7701 19.6771L70.3251 19.5988H66.8801L66.8018 19.5205V13.2568L66.8801 13.1785L75.7275 13.1002L76.8237 12.9436L77.6066 12.5521L77.8415 12.1607L77.9981 11.3777L77.8415 10.3598L77.3717 9.81177L76.6671 9.57688L76.0407 9.49859L66.8801 9.42029L66.8018 9.34199V3.0783L74.1616 3Z" fill="#26397A"/>
<path id="C" d="M59.3634 3H62.417L63.4348 3.0783V9.34199L59.8332 9.49859L58.3456 9.73347L57.3277 10.0467L56.4665 10.5164L55.6052 11.1428L55.0571 11.6909L54.5091 12.4738L54.0393 13.3351L53.5695 14.5878L53.4129 15.3708V17.1716L53.6478 18.2678L54.1176 19.5205L54.6657 20.3818L55.3703 21.1647L56.3099 21.8694L57.5626 22.4958L58.5805 22.8089L59.9115 23.0438L63.4348 23.1221V29.3858L62.9651 29.4641H59.4417L57.2494 29.3075L55.6835 29.0726L54.5874 28.7595L53.0997 28.1331L51.9253 27.5067L51.064 26.8803L50.2811 26.1757L48.7151 24.6098L47.9322 23.4353L47.2275 22.1826L46.7577 21.0864L46.3663 19.8337L45.9748 17.8763L45.8965 17.1716V15.3708L46.1314 13.8049L46.6012 11.8475L47.2275 10.2815L48.0105 8.79392L48.7934 7.77607L49.733 6.75822L50.4377 6.05355L51.6904 5.114L53.0214 4.33104L54.2742 3.78296L55.9967 3.31318L57.4843 3.0783L59.3634 3Z" fill="#26397A"/>
<path id="I" fill-rule="evenodd" clip-rule="evenodd" d="M43.1562 3.07812H36.0312V9.02864L36.1878 9.42012H43.0779L43.1562 9.34182V3.07812ZM43.1562 13.1783H36.1095L36.0312 13.2566V29.3857L37.8321 29.4639H42.9213L43.1562 29.3857L43.2345 13.4132L43.1562 13.1783Z" fill="#26397A"/>
<path id="M" fill-rule="evenodd" clip-rule="evenodd" d="M22.4857 3H18.1012L2.28533 3.0783L2.20703 6.83651V27.8199L2.28533 29.3858L2.36362 29.4641H9.17539L9.41028 29.3858V16.7801L9.48858 9.49859H21.3896L22.2509 9.65518L22.7206 9.89007L23.1121 10.2815L23.347 10.7513L23.5036 11.6126V26.4106L23.5819 29.3858L23.8951 29.4641H28.8277L30.8634 29.3858V10.9862L30.6286 8.87222L30.3154 7.69777L29.689 6.36674L28.9843 5.34889L27.9665 4.40933L27.0269 3.86126L25.8525 3.39148L24.0517 3.0783L22.4857 3ZM19.7454 13.1785H13.3251V29.3858L14.4995 29.4641H18.7275L19.8237 29.3858V13.2568L19.7454 13.1785Z" fill="#26397A"/>
</g>
</g>
</svg>
